<?xml version="1.0" standalone="no"?>
<!DOCTYPE svg PUBLIC "-//W3C//DTD SVG 20010904//EN"
 "http://www.w3.org/TR/2001/REC-SVG-20010904/DTD/svg10.dtd">
<svg version="1.0" xmlns="http://www.w3.org/2000/svg"
 width="1000.000000pt" height="1000.000000pt" viewBox="0 0 1000.000000 1000.000000"
 preserveAspectRatio="xMidYMid meet">
<metadata>
Created by potrace 1.11, written by Peter Selinger 2001-2013
</metadata>
<g transform="translate(0.000000,1000.000000) scale(0.100000,-0.100000)"
fill="#000000" stroke="none">
<path d="M8851 4284 c-12 -15 -21 -34 -21 -44 0 -30 39 -70 69 -70 35 0 71 37
71 73 0 63 -80 90 -119 41z"/>
<path d="M4561 4287 c-51 -16 -107 -75 -121 -126 -29 -108 16 -172 180 -256
60 -30 118 -67 129 -81 43 -55 11 -129 -61 -141 -50 -7 -120 27 -149 73 -23
37 -25 37 -96 8 -18 -8 -33 -17 -33 -21 0 -3 11 -25 25 -48 92 -159 340 -168
432 -17 17 28 23 52 23 97 0 103 -41 149 -205 232 -112 56 -125 68 -125 109 0
81 117 99 177 27 22 -27 22 -27 70 -12 26 8 49 22 51 30 4 23 -67 100 -112
120 -46 21 -131 23 -185 6z"/>
<path d="M930 3935 l0 -355 50 0 50 0 2 213 3 212 60 -212 c33 -117 63 -213
66 -213 3 0 32 93 65 208 l59 207 3 -207 2 -208 55 0 55 0 0 355 0 355 -58 0
-58 0 -59 -220 c-33 -121 -62 -214 -66 -208 -3 7 -30 106 -60 220 l-54 208
-57 0 -58 0 0 -355z"/>
<path d="M1785 4103 c-45 -11 -115 -46 -115 -58 0 -12 20 -76 26 -84 2 -2 25
7 51 20 35 17 66 24 111 24 55 0 66 -3 83 -24 11 -13 19 -39 19 -58 0 -30 -3
-34 -17 -28 -35 14 -139 17 -181 6 -54 -15 -107 -62 -123 -108 -15 -48 -7
-114 21 -153 47 -66 170 -90 258 -50 34 16 42 16 42 5 0 -12 14 -15 60 -15
l60 0 0 183 c0 100 -5 200 -11 222 -22 81 -93 125 -199 124 -36 -1 -74 -4 -85
-6z m138 -304 c35 -9 37 -12 37 -50 0 -37 -3 -41 -42 -59 -51 -23 -99 -25
-137 -5 -35 18 -45 52 -25 83 27 40 90 53 167 31z"/>
<path d="M2510 4094 c-19 -8 -45 -25 -57 -36 l-23 -21 0 31 0 32 -55 0 -55 0
0 -260 0 -260 60 0 60 0 0 163 c0 178 10 219 60 245 37 19 98 8 129 -22 26
-26 26 -28 29 -206 l3 -180 60 0 59 0 0 178 c0 246 -17 297 -112 337 -47 19
-113 19 -158 -1z"/>
<path d="M5400 4095 c-19 -9 -47 -28 -62 -42 l-28 -27 0 37 0 37 -110 0 -110
0 0 -50 0 -50 55 0 55 0 0 -160 0 -160 -55 0 -55 0 0 -50 0 -50 185 0 185 0 0
50 0 50 -70 0 -70 0 0 106 c0 152 26 193 128 210 l42 7 0 -57 0 -57 58 3 57 3
3 92 c3 87 1 93 -20 104 -36 20 -148 22 -188 4z"/>
<path d="M5972 4097 c-99 -37 -153 -128 -153 -256 0 -169 92 -271 243 -271 70
0 177 45 177 75 0 6 -13 25 -30 43 l-30 33 -32 -23 c-48 -35 -126 -32 -165 5
-16 15 -34 43 -40 62 l-10 35 174 0 174 0 6 27 c4 15 2 57 -4 92 -13 78 -51
136 -107 165 -48 25 -154 32 -203 13z m164 -119 c12 -13 26 -35 29 -50 l7 -28
-121 0 c-67 0 -121 3 -121 8 0 21 45 75 73 88 43 19 104 11 133 -18z"/>
<path d="M6672 4097 c-99 -37 -153 -128 -153 -256 0 -169 92 -271 243 -271 70
0 177 45 177 75 0 6 -13 25 -30 43 l-30 33 -32 -23 c-48 -35 -126 -32 -165 5
-16 15 -34 43 -40 62 l-10 35 174 0 174 0 6 27 c4 15 2 57 -4 92 -13 78 -51
136 -107 165 -48 25 -154 32 -203 13z m164 -119 c12 -13 26 -35 29 -50 l7 -28
-121 0 c-67 0 -121 3 -121 8 0 21 45 75 73 88 43 19 104 11 133 -18z"/>
<path d="M7500 4095 c-19 -9 -47 -28 -62 -42 l-28 -27 0 37 0 37 -110 0 -110
0 0 -50 0 -50 55 0 55 0 0 -160 0 -160 -55 0 -55 0 0 -50 0 -50 185 0 185 0 0
50 0 50 -70 0 -70 0 0 106 c0 152 26 193 128 210 l42 7 0 -57 0 -57 58 3 57 3
3 92 c3 87 1 93 -20 104 -36 20 -148 22 -188 4z"/>
<path d="M8065 4103 c-45 -11 -115 -46 -115 -58 0 -12 20 -76 26 -84 2 -2 25
7 51 20 35 17 66 24 111 24 55 0 66 -3 83 -24 11 -13 19 -39 19 -58 0 -30 -3
-34 -17 -28 -35 14 -139 17 -181 6 -54 -15 -107 -62 -123 -108 -15 -48 -7
-114 21 -153 47 -66 170 -90 258 -50 34 16 42 16 42 5 0 -12 14 -15 60 -15
l60 0 0 183 c0 100 -5 200 -11 222 -22 81 -93 125 -199 124 -36 -1 -74 -4 -85
-6z m138 -304 c35 -9 37 -12 37 -50 0 -37 -3 -41 -42 -59 -51 -23 -99 -25
-137 -5 -35 18 -45 52 -25 83 27 40 90 53 167 31z"/>
<path d="M3021 3908 c4 -182 6 -196 29 -243 46 -91 162 -123 263 -71 44 22 47
22 47 5 0 -16 8 -19 60 -19 l60 0 0 260 0 260 -59 0 -60 0 -3 -180 c-3 -178
-3 -180 -29 -206 -31 -30 -92 -41 -129 -22 -50 26 -60 67 -60 246 l0 162 -61
0 -61 0 3 -192z"/>
<path d="M8700 4050 l0 -50 70 0 70 0 0 -230 c0 -230 0 -231 -24 -255 -13 -13
-49 -31 -79 -40 l-56 -16 27 -45 c15 -25 34 -44 44 -44 10 0 42 9 72 20 63 24
110 71 125 127 7 22 11 151 11 311 l0 272 -130 0 -130 0 0 -50z"/>
</g>
</svg>
